<!DOCTYPE svg PUBLIC "-//W3C//DTD SVG 1.1//EN" "http://www.w3.org/Graphics/SVG/1.1/DTD/svg11.dtd">
<!-- Uploaded to: SVG Repo, www.svgrepo.com, Transformed by: SVG Repo Mixer Tools -->
<svg fill="#2a7ae4" width="800px" height="800px" viewBox="0 0 24 24" xmlns="http://www.w3.org/2000/svg" stroke="#2a7ae4">
<g id="SVGRepo_bgCarrier" stroke-width="0"/>
<g id="SVGRepo_tracerCarrier" stroke-linecap="round" stroke-linejoin="round"/>
<g id="SVGRepo_iconCarrier">
<path d="M15.5,8H13V4a1,1,0,0,0-2,0V8H8.5a6.5,6.5,0,0,0,0,13h7a6.5,6.5,0,0,0,0-13ZM10,15.5H9v1a1,1,0,0,1-2,0v-1H6a1,1,0,0,1,0-2H7v-1a1,1,0,0,1,2,0v1h1a1,1,0,0,1,0,2ZM16,17a1,1,0,1,1,1-1A1,1,0,0,1,16,17Zm2-3a1,1,0,1,1,1-1A1,1,0,0,1,18,14Z"/>
</g>
</svg>